<svg width="100" height="13" viewBox="0 0 100 13" fill="none" xmlns="http://www.w3.org/2000/svg">
<path d="M11.9433 9.324C12.0473 9.324 12.1273 9.372 12.1833 9.468C12.2473 9.564 12.2793 9.696 12.2793 9.864C12.2793 10.176 12.2033 10.424 12.0513 10.608C11.6433 11.112 11.2353 11.48 10.8273 11.712C10.4273 11.944 9.99934 12.06 9.54334 12.06C8.86334 12.06 8.33534 11.86 7.95934 11.46C7.58334 11.052 7.39534 10.508 7.39534 9.828C7.39534 9.404 7.49134 8.72 7.68334 7.776L8.12734 5.58C8.35134 4.476 8.47934 3.72 8.51134 3.312C7.98334 3.288 7.35934 3.276 6.63934 3.276C6.20734 3.276 5.89534 3.28 5.70334 3.288C5.41534 4.744 5.14334 6.22 4.88734 7.716C4.79934 8.26 4.70734 8.892 4.61134 9.612C4.51534 10.324 4.45134 10.9 4.41934 11.34C4.40334 11.572 4.30734 11.752 4.13134 11.88C3.95534 12 3.74334 12.06 3.49534 12.06C3.23134 12.06 3.02734 11.996 2.88334 11.868C2.73934 11.74 2.66734 11.572 2.66734 11.364C2.66734 11.172 2.69534 10.856 2.75134 10.416C2.81534 9.968 2.88734 9.5 2.96734 9.012C3.05534 8.524 3.12334 8.1 3.17134 7.74C3.27534 7.076 3.38734 6.428 3.50734 5.796C3.62734 5.164 3.74734 4.556 3.86734 3.972L3.98734 3.396C3.24334 3.484 2.70334 3.628 2.36734 3.828C2.03934 4.028 1.87534 4.3 1.87534 4.644C1.87534 4.924 1.94334 5.168 2.07934 5.376C2.11934 5.432 2.13934 5.504 2.13934 5.592C2.13934 5.752 2.05134 5.9 1.87534 6.036C1.70734 6.164 1.52734 6.228 1.33534 6.228C1.19934 6.228 1.08734 6.188 0.999344 6.108C0.839344 5.972 0.707344 5.78 0.603344 5.532C0.499344 5.276 0.447344 4.988 0.447344 4.668C0.447344 3.988 0.683344 3.444 1.15534 3.036C1.62734 2.62 2.33934 2.316 3.29134 2.124C4.25134 1.932 5.48734 1.836 6.99934 1.836C8.56734 1.836 10.1033 1.956 11.6073 2.196C11.8553 2.236 12.0313 2.32 12.1353 2.448C12.2473 2.568 12.3033 2.708 12.3033 2.868C12.3033 3.108 12.2433 3.292 12.1233 3.42C12.0033 3.54 11.8233 3.6 11.5833 3.6C11.4953 3.6 11.4273 3.596 11.3793 3.588L10.1673 3.432C10.1353 3.992 10.0513 4.568 9.91534 5.16L9.18334 8.592C9.10334 8.992 9.06334 9.336 9.06334 9.624C9.06334 9.96 9.13934 10.212 9.29134 10.38C9.45134 10.548 9.67134 10.632 9.95134 10.632C10.2153 10.632 10.4713 10.544 10.7193 10.368C10.9753 10.192 11.2753 9.9 11.6193 9.492C11.7153 9.38 11.8233 9.324 11.9433 9.324ZM12.7786 12.06C12.2826 12.06 11.8866 11.88 11.5906 11.52C11.2946 11.16 11.1466 10.688 11.1466 10.104C11.1466 9.464 11.2946 8.86 11.5906 8.292C11.8866 7.716 12.2786 7.256 12.7666 6.912C13.2626 6.56 13.7866 6.384 14.3386 6.384C14.5146 6.384 14.6306 6.42 14.6866 6.492C14.7506 6.556 14.8026 6.676 14.8426 6.852C15.0106 6.82 15.1866 6.804 15.3706 6.804C15.7626 6.804 15.9586 6.944 15.9586 7.224C15.9586 7.392 15.8986 7.792 15.7786 8.424C15.5946 9.344 15.5026 9.984 15.5026 10.344C15.5026 10.464 15.5306 10.56 15.5866 10.632C15.6506 10.704 15.7306 10.74 15.8266 10.74C15.9786 10.74 16.1626 10.644 16.3786 10.452C16.5946 10.252 16.8866 9.932 17.2546 9.492C17.3506 9.38 17.4586 9.324 17.5786 9.324C17.6826 9.324 17.7626 9.372 17.8186 9.468C17.8826 9.564 17.9146 9.696 17.9146 9.864C17.9146 10.184 17.8386 10.432 17.6866 10.608C17.3586 11.016 17.0106 11.36 16.6426 11.64C16.2746 11.92 15.9186 12.06 15.5746 12.06C15.3106 12.06 15.0666 11.972 14.8426 11.796C14.6266 11.612 14.4626 11.364 14.3506 11.052C13.9346 11.724 13.4106 12.06 12.7786 12.06ZM13.2106 10.848C13.3866 10.848 13.5546 10.744 13.7146 10.536C13.8746 10.328 13.9906 10.052 14.0626 9.708L14.5066 7.5C14.1706 7.508 13.8586 7.636 13.5706 7.884C13.2906 8.124 13.0666 8.444 12.8986 8.844C12.7306 9.244 12.6466 9.668 12.6466 10.116C12.6466 10.364 12.6946 10.548 12.7906 10.668C12.8946 10.788 13.0346 10.848 13.2106 10.848ZM23.3233 8.316C23.4273 8.316 23.5073 8.368 23.5633 8.472C23.6193 8.576 23.6473 8.708 23.6473 8.868C23.6473 9.068 23.6193 9.224 23.5633 9.336C23.5073 9.44 23.4193 9.512 23.2993 9.552C22.8193 9.72 22.2913 9.816 21.7153 9.84C21.5553 10.504 21.2513 11.04 20.8033 11.448C20.3633 11.856 19.8753 12.06 19.3393 12.06C18.5313 12.06 17.9433 11.752 17.5753 11.136C17.2073 10.52 17.0233 9.628 17.0233 8.46C17.0233 7.428 17.1513 6.308 17.4073 5.1C17.6633 3.884 18.0353 2.852 18.5233 2.004C19.0193 1.148 19.6073 0.719999 20.2873 0.719999C20.6553 0.719999 20.9513 0.879999 21.1753 1.2C21.3993 1.512 21.5113 1.92 21.5113 2.424C21.5113 3.08 21.3873 3.732 21.1393 4.38C20.8913 5.028 20.4793 5.708 19.9033 6.42C20.4393 6.46 20.8753 6.684 21.2113 7.092C21.5473 7.492 21.7473 7.988 21.8113 8.58C22.1873 8.556 22.6353 8.476 23.1553 8.34C23.2033 8.324 23.2593 8.316 23.3233 8.316ZM20.0113 1.908C19.8513 1.908 19.6753 2.148 19.4833 2.628C19.2993 3.1 19.1273 3.744 18.9673 4.56C18.8073 5.376 18.6873 6.268 18.6073 7.236C19.1353 6.268 19.5553 5.416 19.8673 4.68C20.1873 3.936 20.3473 3.276 20.3473 2.7C20.3473 2.444 20.3153 2.248 20.2513 2.112C20.1953 1.976 20.1153 1.908 20.0113 1.908ZM19.3873 10.788C19.6353 10.788 19.8553 10.684 20.0473 10.476C20.2393 10.268 20.3673 9.968 20.4313 9.576C20.1833 9.408 19.9913 9.188 19.8553 8.916C19.7273 8.644 19.6633 8.356 19.6633 8.052C19.6633 7.94 19.6793 7.788 19.7113 7.596H19.6753C19.3473 7.596 19.0713 7.76 18.8473 8.088C18.6313 8.408 18.5233 8.84 18.5233 9.384C18.5233 9.84 18.6073 10.188 18.7753 10.428C18.9513 10.668 19.1553 10.788 19.3873 10.788ZM29.6912 9.324C29.7952 9.324 29.8752 9.372 29.9312 9.468C29.9952 9.564 30.0272 9.696 30.0272 9.864C30.0272 10.184 29.9512 10.432 29.7992 10.608C29.5352 10.92 29.3032 11.172 29.1032 11.364C28.9112 11.548 28.6712 11.712 28.3832 11.856C28.1032 11.992 27.7832 12.06 27.4232 12.06C26.9512 12.06 26.6152 11.876 26.4152 11.508C26.2152 11.132 26.1152 10.568 26.1152 9.816C26.1152 9.44 26.1312 9.076 26.1632 8.724H26.1392C25.8192 9.788 25.4232 10.608 24.9512 11.184C24.4872 11.76 23.9552 12.048 23.3552 12.048C22.9472 12.048 22.6272 11.9 22.3952 11.604C22.1632 11.308 22.0472 10.936 22.0472 10.488C22.0472 10.088 22.1392 9.764 22.3232 9.516C22.5072 9.268 22.7672 9.144 23.1032 9.144C23.2552 9.144 23.3672 9.176 23.4392 9.24C23.5192 9.304 23.5512 9.392 23.5352 9.504C23.4712 9.888 23.4392 10.152 23.4392 10.296C23.4392 10.584 23.5112 10.728 23.6552 10.728C23.7352 10.728 23.8232 10.668 23.9192 10.548C24.0232 10.428 24.1952 10.136 24.4352 9.672C24.6192 9.32 24.8072 8.924 24.9992 8.484C25.1992 8.044 25.3632 7.652 25.4912 7.308C25.6192 6.972 25.7672 6.744 25.9352 6.624C26.1032 6.496 26.3432 6.432 26.6552 6.432C26.9592 6.432 27.1832 6.492 27.3272 6.612C27.4712 6.732 27.5432 6.928 27.5432 7.2L27.5192 8.088C27.4872 8.76 27.4712 9.244 27.4712 9.54C27.4712 10.38 27.6432 10.8 27.9872 10.8C28.1312 10.8 28.2712 10.732 28.4072 10.596C28.5512 10.46 28.7712 10.212 29.0672 9.852L29.3672 9.492C29.4632 9.38 29.5712 9.324 29.6912 9.324ZM34.5491 9.324C34.6531 9.324 34.7331 9.372 34.7891 9.468C34.8531 9.564 34.8851 9.696 34.8851 9.864C34.8851 10.184 34.8091 10.432 34.6571 10.608C34.3611 10.968 33.9411 11.3 33.3971 11.604C32.8611 11.908 32.2851 12.06 31.6691 12.06C30.8291 12.06 30.1771 11.832 29.7131 11.376C29.2491 10.92 29.0171 10.296 29.0171 9.504C29.0171 8.952 29.1331 8.44 29.3651 7.968C29.5971 7.488 29.9171 7.108 30.3251 6.828C30.7411 6.548 31.2091 6.408 31.7291 6.408C32.1931 6.408 32.5651 6.548 32.8451 6.828C33.1251 7.1 33.2651 7.472 33.2651 7.944C33.2651 8.496 33.0651 8.972 32.6651 9.372C32.2731 9.764 31.6051 10.076 30.6611 10.308C30.8611 10.676 31.2411 10.86 31.8011 10.86C32.1611 10.86 32.5691 10.736 33.0251 10.488C33.4891 10.232 33.8891 9.9 34.2251 9.492C34.3211 9.38 34.4291 9.324 34.5491 9.324ZM31.5251 7.584C31.2291 7.584 30.9771 7.756 30.7691 8.1C30.5691 8.444 30.4691 8.86 30.4691 9.348V9.372C30.9411 9.26 31.3131 9.092 31.5851 8.868C31.8571 8.644 31.9931 8.384 31.9931 8.088C31.9931 7.936 31.9491 7.816 31.8611 7.728C31.7811 7.632 31.6691 7.584 31.5251 7.584ZM40.4918 12.06C39.8198 12.06 39.3118 11.876 38.9678 11.508C38.6238 11.132 38.4518 10.632 38.4518 10.008C38.4518 9.656 38.5038 9.228 38.6078 8.724L39.3518 5.292C39.3678 5.228 39.4038 5.052 39.4598 4.764C39.5238 4.476 39.5558 4.164 39.5558 3.828C39.5558 3.636 39.5158 3.492 39.4358 3.396C39.3638 3.3 39.2638 3.252 39.1358 3.252C38.8958 3.252 38.6158 3.368 38.2958 3.6C37.9758 3.824 37.6398 4.172 37.2878 4.644C37.1758 4.796 37.0518 4.872 36.9158 4.872C36.8038 4.872 36.7038 4.82 36.6158 4.716C36.5358 4.604 36.4958 4.48 36.4958 4.344C36.4958 4.096 36.6078 3.816 36.8318 3.504C37.6478 2.384 38.6038 1.824 39.6998 1.824C40.1878 1.824 40.5678 1.972 40.8398 2.268C41.1198 2.564 41.2598 3 41.2598 3.576C41.2598 3.984 41.2318 4.36 41.1758 4.704C41.1198 5.048 41.0238 5.516 40.8878 6.108L40.3958 8.304C40.3798 8.376 40.3518 8.504 40.3118 8.688C40.2718 8.872 40.2398 9.048 40.2158 9.216C40.1918 9.376 40.1798 9.536 40.1798 9.696C40.1798 9.952 40.2518 10.156 40.3958 10.308C40.5398 10.46 40.7438 10.536 41.0078 10.536C41.4878 10.536 41.9718 10.28 42.4598 9.768C42.9558 9.256 43.4118 8.432 43.8278 7.296C44.2518 6.152 44.5798 4.692 44.8118 2.916C44.8678 2.508 44.9478 2.224 45.0518 2.064C45.1638 1.904 45.3758 1.824 45.6878 1.824C45.9678 1.824 46.1758 1.908 46.3118 2.076C46.4478 2.244 46.5158 2.516 46.5158 2.892C46.5158 3.108 46.4878 3.392 46.4318 3.744C46.3838 4.096 46.3078 4.588 46.2038 5.22C45.9878 6.444 45.8158 7.568 45.6878 8.592C45.6238 9.056 45.5918 9.4 45.5918 9.624C45.5918 9.952 45.6638 10.204 45.8078 10.38C45.9598 10.548 46.1598 10.632 46.4078 10.632C46.6718 10.632 46.9278 10.544 47.1758 10.368C47.4318 10.192 47.7318 9.9 48.0758 9.492C48.1718 9.38 48.2798 9.324 48.3998 9.324C48.5038 9.324 48.5838 9.372 48.6398 9.468C48.7038 9.564 48.7358 9.696 48.7358 9.864C48.7358 10.176 48.6598 10.424 48.5078 10.608C48.0918 11.112 47.6798 11.48 47.2718 11.712C46.8638 11.944 46.4358 12.06 45.9878 12.06C45.3238 12.06 44.8158 11.892 44.4638 11.556C44.1118 11.212 43.9358 10.768 43.9358 10.224C43.9358 9.92 43.9998 9.328 44.1278 8.448C43.7278 9.624 43.2198 10.52 42.6038 11.136C41.9958 11.752 41.2918 12.06 40.4918 12.06ZM49.8116 6.3C50.4116 6.3 50.8636 6.408 51.1676 6.624C51.4796 6.832 51.6356 7.136 51.6356 7.536C51.6356 7.88 51.5636 8.168 51.4196 8.4C51.2756 8.632 51.1036 8.816 50.9036 8.952C50.7036 9.088 50.4436 9.236 50.1236 9.396C49.7796 9.572 49.5276 9.724 49.3676 9.852C49.2076 9.98 49.1276 10.152 49.1276 10.368C49.1276 10.544 49.1916 10.668 49.3196 10.74C49.4476 10.812 49.6716 10.848 49.9916 10.848C50.4636 10.848 50.9316 10.732 51.3956 10.5C51.8676 10.26 52.2836 9.924 52.6436 9.492C52.7316 9.38 52.8396 9.324 52.9676 9.324C53.0716 9.324 53.1516 9.372 53.2076 9.468C53.2716 9.564 53.3036 9.696 53.3036 9.864C53.3036 10.16 53.2276 10.408 53.0756 10.608C52.6916 11.12 52.2236 11.512 51.6716 11.784C51.1196 12.048 50.5076 12.18 49.8356 12.18C49.1316 12.18 48.5876 12.06 48.2036 11.82C47.8196 11.572 47.6276 11.176 47.6276 10.632C47.6276 10.288 47.6996 9.996 47.8436 9.756C47.9956 9.508 48.1756 9.308 48.3836 9.156C48.5996 8.996 48.8676 8.832 49.1876 8.664C49.5156 8.488 49.7556 8.336 49.9076 8.208C50.0596 8.072 50.1356 7.912 50.1356 7.728C50.1356 7.624 50.0916 7.544 50.0036 7.488C49.9156 7.424 49.7876 7.392 49.6196 7.392C49.4676 7.392 49.3316 7.416 49.2116 7.464C49.0916 7.504 48.9596 7.564 48.8156 7.644C48.7356 7.684 48.6516 7.724 48.5636 7.764C48.4836 7.796 48.4076 7.812 48.3356 7.812C48.1836 7.812 48.0636 7.764 47.9756 7.668C47.8956 7.564 47.8556 7.432 47.8556 7.272C47.8556 7.056 47.9556 6.872 48.1556 6.72C48.3156 6.6 48.5516 6.5 48.8636 6.42C49.1756 6.34 49.4916 6.3 49.8116 6.3ZM61.9662 9.324C62.0702 9.324 62.1502 9.372 62.2062 9.468C62.2702 9.564 62.3022 9.696 62.3022 9.864C62.3022 10.184 62.2262 10.432 62.0742 10.608C61.7062 11.032 61.3262 11.38 60.9342 11.652C60.5502 11.924 60.1102 12.06 59.6142 12.06C59.2862 12.06 58.9982 11.964 58.7502 11.772C58.3822 11.964 57.9662 12.06 57.5022 12.06C56.7822 12.06 56.2342 11.856 55.8582 11.448C55.4822 11.04 55.2942 10.5 55.2942 9.828V9.744H54.6222C54.2222 9.744 53.9382 9.736 53.7702 9.72C53.7542 9.944 53.7462 10.1 53.7462 10.188V10.44C53.7382 10.936 53.7262 11.284 53.7102 11.484C53.6942 11.684 53.6462 11.832 53.5662 11.928C53.4862 12.016 53.3542 12.06 53.1702 12.06C52.8662 12.06 52.6502 11.9 52.5222 11.58C52.4022 11.26 52.3422 10.748 52.3422 10.044C52.3422 9.004 52.4902 8.016 52.7862 7.08C52.8582 6.848 52.9742 6.68 53.1342 6.576C53.3022 6.464 53.5342 6.408 53.8302 6.408C53.9902 6.408 54.1022 6.428 54.1662 6.468C54.2302 6.508 54.2622 6.584 54.2622 6.696C54.2622 6.824 54.2022 7.112 54.0822 7.56C54.0182 7.824 53.9582 8.144 53.9022 8.52H55.3902C55.4542 8.104 55.5702 7.624 55.7382 7.08C55.8182 6.832 55.9182 6.66 56.0382 6.564C56.1662 6.46 56.3822 6.408 56.6862 6.408C57.0462 6.408 57.2262 6.504 57.2262 6.696C57.2262 6.776 57.1662 7.064 57.0462 7.56L56.9622 7.92L56.7942 8.64C57.0102 8.424 57.2662 8.248 57.5622 8.112C57.8662 7.968 58.1742 7.896 58.4862 7.896C58.9742 7.896 59.3582 8.056 59.6382 8.376C59.9262 8.696 60.0702 9.104 60.0702 9.6C60.0702 9.984 59.9782 10.36 59.7942 10.728C59.8342 10.736 59.8902 10.74 59.9622 10.74C60.2262 10.74 60.4782 10.644 60.7182 10.452C60.9582 10.26 61.2662 9.94 61.6422 9.492C61.7382 9.38 61.8462 9.324 61.9662 9.324ZM57.5622 10.788C57.8822 10.788 58.1302 10.7 58.3062 10.524C58.4822 10.34 58.5702 10.096 58.5702 9.792C58.5702 9.368 58.3422 9.156 57.8862 9.156C57.6222 9.156 57.3862 9.232 57.1782 9.384C56.9782 9.536 56.8142 9.708 56.6862 9.9C56.7182 10.188 56.8022 10.408 56.9382 10.56C57.0742 10.712 57.2822 10.788 57.5622 10.788ZM62.8059 12.06C62.3099 12.06 61.9139 11.88 61.6179 11.52C61.3219 11.16 61.1739 10.688 61.1739 10.104C61.1739 9.464 61.3219 8.86 61.6179 8.292C61.9139 7.716 62.3059 7.256 62.7939 6.912C63.2899 6.56 63.8139 6.384 64.3659 6.384C64.5419 6.384 64.6579 6.42 64.7139 6.492C64.7779 6.556 64.8299 6.676 64.8699 6.852C65.0379 6.82 65.2139 6.804 65.3979 6.804C65.7899 6.804 65.9859 6.944 65.9859 7.224C65.9859 7.392 65.9259 7.792 65.8059 8.424C65.6219 9.344 65.5299 9.984 65.5299 10.344C65.5299 10.464 65.5579 10.56 65.6139 10.632C65.6779 10.704 65.7579 10.74 65.8539 10.74C66.0059 10.74 66.1899 10.644 66.4059 10.452C66.6219 10.252 66.9139 9.932 67.2819 9.492C67.3779 9.38 67.4859 9.324 67.6059 9.324C67.7099 9.324 67.7899 9.372 67.8459 9.468C67.9099 9.564 67.9419 9.696 67.9419 9.864C67.9419 10.184 67.8659 10.432 67.7139 10.608C67.3859 11.016 67.0379 11.36 66.6699 11.64C66.3019 11.92 65.9459 12.06 65.6019 12.06C65.3379 12.06 65.0939 11.972 64.8699 11.796C64.6539 11.612 64.4899 11.364 64.3779 11.052C63.9619 11.724 63.4379 12.06 62.8059 12.06ZM63.2379 10.848C63.4139 10.848 63.5819 10.744 63.7419 10.536C63.9019 10.328 64.0179 10.052 64.0899 9.708L64.5339 7.5C64.1979 7.508 63.8859 7.636 63.5979 7.884C63.3179 8.124 63.0939 8.444 62.9259 8.844C62.7579 9.244 62.6739 9.668 62.6739 10.116C62.6739 10.364 62.7219 10.548 62.8179 10.668C62.9219 10.788 63.0619 10.848 63.2379 10.848ZM67.8186 12.06C67.5146 12.06 67.2986 11.9 67.1706 11.58C67.0506 11.26 66.9906 10.748 66.9906 10.044C66.9906 9.004 67.1386 8.016 67.4346 7.08C67.5066 6.848 67.6226 6.68 67.7826 6.576C67.9506 6.464 68.1826 6.408 68.4786 6.408C68.6386 6.408 68.7506 6.428 68.8146 6.468C68.8786 6.508 68.9106 6.584 68.9106 6.696C68.9106 6.824 68.8506 7.112 68.7306 7.56C68.6506 7.88 68.5866 8.16 68.5386 8.4C68.4906 8.632 68.4506 8.924 68.4186 9.276C68.6346 8.652 68.8906 8.124 69.1866 7.692C69.4906 7.26 69.7986 6.94 70.1106 6.732C70.4306 6.516 70.7306 6.408 71.0106 6.408C71.2906 6.408 71.4866 6.472 71.5986 6.6C71.7186 6.728 71.7786 6.924 71.7786 7.188C71.7786 7.444 71.7026 7.908 71.5506 8.58C71.4866 8.868 71.4426 9.084 71.4186 9.228C71.8186 8.244 72.2626 7.528 72.7506 7.08C73.2386 6.632 73.6946 6.408 74.1186 6.408C74.6386 6.408 74.8986 6.668 74.8986 7.188C74.8986 7.5 74.8106 8.064 74.6346 8.88C74.4826 9.576 74.4066 10.036 74.4066 10.26C74.4066 10.58 74.5226 10.74 74.7546 10.74C74.9146 10.74 75.1026 10.644 75.3186 10.452C75.5426 10.252 75.8386 9.932 76.2066 9.492C76.3026 9.38 76.4106 9.324 76.5306 9.324C76.6346 9.324 76.7146 9.372 76.7706 9.468C76.8346 9.564 76.8666 9.696 76.8666 9.864C76.8666 10.184 76.7906 10.432 76.6386 10.608C76.2946 11.032 75.9226 11.38 75.5226 11.652C75.1306 11.924 74.6826 12.06 74.1786 12.06C73.7706 12.06 73.4626 11.944 73.2546 11.712C73.0466 11.472 72.9426 11.128 72.9426 10.68C72.9426 10.456 72.9986 10.056 73.1106 9.48C73.2146 8.976 73.2666 8.628 73.2666 8.436C73.2666 8.308 73.2226 8.244 73.1346 8.244C73.0306 8.244 72.8826 8.38 72.6906 8.652C72.4986 8.916 72.3066 9.268 72.1146 9.708C71.9226 10.148 71.7666 10.612 71.6466 11.1C71.5586 11.484 71.4546 11.74 71.3346 11.868C71.2226 11.996 71.0386 12.06 70.7826 12.06C70.5186 12.06 70.3186 11.936 70.1826 11.688C70.0546 11.432 69.9906 11.124 69.9906 10.764C69.9906 10.46 70.0306 10.02 70.1106 9.444C70.1746 8.932 70.2066 8.596 70.2066 8.436C70.2066 8.308 70.1626 8.244 70.0746 8.244C69.9546 8.244 69.8026 8.388 69.6186 8.676C69.4346 8.964 69.2546 9.332 69.0786 9.78C68.9106 10.228 68.7746 10.668 68.6706 11.1C68.5826 11.476 68.4786 11.732 68.3586 11.868C68.2466 11.996 68.0666 12.06 67.8186 12.06ZM82.0163 8.316C82.1203 8.316 82.2003 8.368 82.2563 8.472C82.3123 8.576 82.3403 8.708 82.3403 8.868C82.3403 9.252 82.2243 9.48 81.9923 9.552C81.5123 9.72 80.9843 9.816 80.4083 9.84C80.2563 10.512 79.9563 11.052 79.5083 11.46C79.0603 11.86 78.5523 12.06 77.9843 12.06C77.5043 12.06 77.0923 11.944 76.7483 11.712C76.4123 11.48 76.1563 11.172 75.9803 10.788C75.8043 10.404 75.7163 9.988 75.7163 9.54C75.7163 8.932 75.8323 8.392 76.0643 7.92C76.2963 7.44 76.6163 7.068 77.0243 6.804C77.4323 6.532 77.8843 6.396 78.3803 6.396C78.9883 6.396 79.4763 6.608 79.8443 7.032C80.2203 7.448 80.4403 7.964 80.5043 8.58C80.8803 8.556 81.3283 8.476 81.8483 8.34C81.9123 8.324 81.9683 8.316 82.0163 8.316ZM78.0803 10.788C78.3363 10.788 78.5563 10.684 78.7403 10.476C78.9323 10.268 79.0603 9.968 79.1243 9.576C78.8763 9.408 78.6843 9.188 78.5483 8.916C78.4203 8.644 78.3563 8.356 78.3563 8.052C78.3563 7.924 78.3683 7.796 78.3923 7.668H78.3323C78.0123 7.668 77.7443 7.824 77.5283 8.136C77.3203 8.44 77.2163 8.872 77.2163 9.432C77.2163 9.872 77.3003 10.208 77.4683 10.44C77.6443 10.672 77.8483 10.788 78.0803 10.788ZM87.6944 8.316C87.7984 8.316 87.8784 8.368 87.9344 8.472C87.9904 8.576 88.0184 8.708 88.0184 8.868C88.0184 9.068 87.9904 9.224 87.9344 9.336C87.8784 9.44 87.7904 9.512 87.6704 9.552C87.1904 9.72 86.6624 9.816 86.0864 9.84C85.9264 10.504 85.6224 11.04 85.1744 11.448C84.7344 11.856 84.2464 12.06 83.7104 12.06C82.9024 12.06 82.3144 11.752 81.9464 11.136C81.5784 10.52 81.3944 9.628 81.3944 8.46C81.3944 7.428 81.5224 6.308 81.7784 5.1C82.0344 3.884 82.4064 2.852 82.8944 2.004C83.3904 1.148 83.9784 0.719999 84.6584 0.719999C85.0264 0.719999 85.3224 0.879999 85.5464 1.2C85.7704 1.512 85.8824 1.92 85.8824 2.424C85.8824 3.08 85.7584 3.732 85.5104 4.38C85.2624 5.028 84.8504 5.708 84.2744 6.42C84.8104 6.46 85.2464 6.684 85.5824 7.092C85.9184 7.492 86.1184 7.988 86.1824 8.58C86.5584 8.556 87.0064 8.476 87.5264 8.34C87.5744 8.324 87.6304 8.316 87.6944 8.316ZM84.3824 1.908C84.2224 1.908 84.0464 2.148 83.8544 2.628C83.6704 3.1 83.4984 3.744 83.3384 4.56C83.1784 5.376 83.0584 6.268 82.9784 7.236C83.5064 6.268 83.9264 5.416 84.2384 4.68C84.5584 3.936 84.7184 3.276 84.7184 2.7C84.7184 2.444 84.6864 2.248 84.6224 2.112C84.5664 1.976 84.4864 1.908 84.3824 1.908ZM83.7584 10.788C84.0064 10.788 84.2264 10.684 84.4184 10.476C84.6104 10.268 84.7384 9.968 84.8024 9.576C84.5544 9.408 84.3624 9.188 84.2264 8.916C84.0984 8.644 84.0344 8.356 84.0344 8.052C84.0344 7.94 84.0504 7.788 84.0824 7.596H84.0464C83.7184 7.596 83.4424 7.76 83.2184 8.088C83.0024 8.408 82.8944 8.84 82.8944 9.384C82.8944 9.84 82.9784 10.188 83.1464 10.428C83.3224 10.668 83.5264 10.788 83.7584 10.788ZM88.2063 12.06C87.8463 12.06 87.5503 11.896 87.3183 11.568C87.0943 11.232 86.9823 10.816 86.9823 10.32C86.9823 9.72 87.0223 9.172 87.1023 8.676C87.1823 8.172 87.3143 7.64 87.4983 7.08C87.5783 6.84 87.6903 6.668 87.8343 6.564C87.9783 6.46 88.2063 6.408 88.5183 6.408C88.6943 6.408 88.8143 6.436 88.8783 6.492C88.9503 6.548 88.9863 6.632 88.9863 6.744C88.9863 6.808 88.9423 7.024 88.8543 7.392C88.7743 7.688 88.7103 7.956 88.6623 8.196C88.5023 9.036 88.4223 9.596 88.4223 9.876C88.4223 10.044 88.4423 10.164 88.4823 10.236C88.5223 10.3 88.5863 10.332 88.6743 10.332C88.7943 10.332 88.9423 10.212 89.1183 9.972C89.3023 9.732 89.4943 9.368 89.6943 8.88C89.9023 8.392 90.1023 7.792 90.2943 7.08C90.3583 6.84 90.4543 6.668 90.5823 6.564C90.7183 6.46 90.9183 6.408 91.1823 6.408C91.3663 6.408 91.4943 6.432 91.5663 6.48C91.6383 6.52 91.6743 6.6 91.6743 6.72C91.6743 6.92 91.5743 7.468 91.3743 8.364C91.1503 9.388 91.0383 10.02 91.0383 10.26C91.0383 10.412 91.0703 10.532 91.1343 10.62C91.1983 10.7 91.2823 10.74 91.3863 10.74C91.5463 10.74 91.7343 10.644 91.9503 10.452C92.1743 10.252 92.4703 9.932 92.8383 9.492C92.9343 9.38 93.0423 9.324 93.1623 9.324C93.2663 9.324 93.3463 9.372 93.4023 9.468C93.4663 9.564 93.4983 9.696 93.4983 9.864C93.4983 10.184 93.4223 10.432 93.2703 10.608C92.9263 11.032 92.5543 11.38 92.1543 11.652C91.7623 11.924 91.3143 12.06 90.8103 12.06C90.4263 12.06 90.1423 11.912 89.9583 11.616C89.7823 11.32 89.6943 10.904 89.6943 10.368C89.5583 10.912 89.3543 11.332 89.0823 11.628C88.8103 11.916 88.5183 12.06 88.2063 12.06ZM99.1852 9.324C99.2892 9.324 99.3692 9.372 99.4252 9.468C99.4892 9.564 99.5212 9.696 99.5212 9.864C99.5212 10.184 99.4452 10.432 99.2932 10.608C98.9492 11.032 98.5772 11.38 98.1772 11.652C97.7852 11.924 97.3372 12.06 96.8332 12.06C96.4252 12.06 96.1172 11.944 95.9092 11.712C95.7012 11.472 95.5972 11.128 95.5972 10.68C95.5972 10.456 95.6532 10.056 95.7652 9.48C95.8692 8.976 95.9212 8.628 95.9212 8.436C95.9212 8.308 95.8772 8.244 95.7892 8.244C95.6852 8.244 95.5372 8.38 95.3452 8.652C95.1532 8.916 94.9612 9.268 94.7692 9.708C94.5772 10.148 94.4212 10.612 94.3012 11.1C94.2132 11.476 94.1092 11.732 93.9892 11.868C93.8772 11.996 93.6972 12.06 93.4492 12.06C93.1612 12.06 92.9532 11.932 92.8252 11.676C92.6972 11.412 92.6332 10.972 92.6332 10.356C92.6332 10.052 92.6532 9.62 92.6932 9.06C92.7652 7.996 92.9692 6.668 93.3052 5.076C93.0492 5.028 92.8652 4.96 92.7532 4.872C92.6412 4.776 92.5852 4.656 92.5852 4.512C92.5852 4.12 92.7372 3.924 93.0412 3.924C93.2972 3.924 93.4732 3.928 93.5692 3.936C93.6412 3.632 93.7332 3.296 93.8452 2.928C93.9412 2.6 94.0612 2.376 94.2052 2.256C94.3572 2.128 94.5572 2.064 94.8052 2.064C95.2772 2.064 95.5132 2.232 95.5132 2.568C95.5132 2.672 95.4972 2.776 95.4652 2.88L95.1652 3.972C95.2772 3.972 95.4612 3.964 95.7172 3.948C96.1172 3.932 96.4412 3.924 96.6892 3.924C96.9292 3.924 97.0892 3.98 97.1692 4.092C97.2492 4.204 97.2892 4.352 97.2892 4.536C97.2892 4.744 97.2172 4.9 97.0732 5.004C96.9372 5.1 96.7452 5.148 96.4972 5.148H94.8772C94.5732 6.356 94.3012 7.728 94.0612 9.264C94.3252 8.584 94.6172 8.032 94.9372 7.608C95.2652 7.176 95.5852 6.868 95.8972 6.684C96.2172 6.5 96.5092 6.408 96.7732 6.408C97.2932 6.408 97.5532 6.668 97.5532 7.188C97.5532 7.5 97.4652 8.064 97.2892 8.88C97.1372 9.576 97.0612 10.036 97.0612 10.26C97.0612 10.58 97.1772 10.74 97.4092 10.74C97.5692 10.74 97.7572 10.644 97.9732 10.452C98.1972 10.252 98.4932 9.932 98.8612 9.492C98.9572 9.38 99.0652 9.324 99.1852 9.324Z" fill="black"/>
</svg>
